<svg width="1920" height="1193" viewBox="0 0 1920 1193" fill="none" xmlns="http://www.w3.org/2000/svg">
<g filter="url(#filter0_f_7_53)">
<path d="M990.912 419.037C990.912 641.173 475.272 896.446 209.818 896.446C-55.635 896.446 6.26021 641.173 6.26021 419.037C6.26021 196.902 221.453 16.8255 486.906 16.8255C752.359 16.8255 990.912 196.902 990.912 419.037Z" fill="#D79F4A" fill-opacity="0.53"/>
</g>
<g filter="url(#filter1_f_7_53)">
<path d="M1282.01 526.649L1744.28 972.552H187.557L1282.01 526.649Z" fill="#A300A7" fill-opacity="0.36"/>
</g>
<g filter="url(#filter2_f_7_53)">
<path d="M550.568 -2.00003L1369.75 13.1878L1920.33 13.1878L1919.67 1013L550.568 -2.00003Z" fill="#384E87" fill-opacity="0.7"/>
</g>
<path d="M1671.33 694.48C1670.86 694.48 1670.62 694.246 1670.62 693.777V674.277C1670.62 674.069 1670.67 673.871 1670.78 673.684L1671.87 671.699C1672.07 671.335 1672.23 671.152 1672.36 671.152H1672.9C1673.22 671.152 1673.37 671.335 1673.37 671.699V693.777C1673.37 694.246 1673.14 694.48 1672.67 694.48H1671.33ZM1678.51 694.48C1678.04 694.48 1677.81 694.246 1677.81 693.777V678.777C1677.81 678.309 1678.04 678.074 1678.51 678.074H1679.86C1680.33 678.074 1680.56 678.309 1680.56 678.777V693.777C1680.56 694.246 1680.33 694.48 1679.86 694.48H1678.51ZM1678.51 675.105C1678.04 675.105 1677.81 674.871 1677.81 674.402V673.059C1677.81 672.59 1678.04 672.355 1678.51 672.355H1679.86C1680.33 672.355 1680.56 672.59 1680.56 673.059V674.402C1680.56 674.871 1680.33 675.105 1679.86 675.105H1678.51ZM1685.7 694.48C1685.23 694.48 1685 694.246 1685 693.777V678.777C1685 678.309 1685.23 678.074 1685.7 678.074H1687.01C1687.48 678.074 1687.72 678.309 1687.72 678.777V680.027H1687.78C1688.46 679.277 1689.18 678.72 1689.97 678.355C1690.75 677.991 1691.72 677.809 1692.89 677.809C1694.78 677.809 1696.14 678.345 1696.97 679.418C1697.8 680.48 1698.22 681.939 1698.22 683.793V693.777C1698.22 694.246 1697.98 694.48 1697.51 694.48H1696.17C1695.7 694.48 1695.47 694.246 1695.47 693.777V684.543C1695.47 682.501 1695.13 681.21 1694.45 680.668C1693.77 680.116 1692.91 679.84 1691.87 679.84C1690.52 679.84 1689.49 680.246 1688.79 681.059C1688.1 681.861 1687.75 683.241 1687.75 685.199V693.777C1687.75 694.246 1687.51 694.48 1687.04 694.48H1685.7ZM1703.33 694.48C1702.86 694.48 1702.62 694.246 1702.62 693.777V672.121C1702.62 671.652 1702.86 671.418 1703.33 671.418H1704.67C1705.14 671.418 1705.37 671.652 1705.37 672.121V685.121C1705.37 685.434 1705.36 685.746 1705.34 686.059H1705.37L1711.7 678.48C1711.93 678.21 1712.21 678.074 1712.53 678.074H1713.95C1714.74 678.074 1714.88 678.381 1714.36 678.996L1709.45 684.84L1715.06 693.559C1715.46 694.173 1715.32 694.48 1714.65 694.48H1713.12C1712.78 694.48 1712.48 694.288 1712.23 693.902L1707.73 686.887L1705.37 689.699V693.777C1705.37 694.246 1705.14 694.48 1704.67 694.48H1703.33ZM1717.42 686.277C1717.42 683.694 1718.06 681.637 1719.36 680.105C1720.65 678.574 1722.5 677.809 1724.9 677.809C1726.9 677.809 1728.56 678.512 1729.87 679.918C1731.2 681.314 1731.86 683.548 1731.86 686.621C1731.86 687.09 1731.64 687.324 1731.22 687.324H1720.33C1720.5 689.335 1721.04 690.736 1721.95 691.527C1722.86 692.309 1723.88 692.699 1725.03 692.699C1726.24 692.699 1727.16 692.496 1727.81 692.09C1728.46 691.684 1728.93 691.282 1729.23 690.887C1729.56 690.449 1729.89 690.366 1730.2 690.637L1731.12 691.434C1731.36 691.642 1731.36 691.928 1731.12 692.293C1730.92 692.595 1730.36 693.079 1729.42 693.746C1728.49 694.413 1727.03 694.746 1725.03 694.746C1722.42 694.746 1720.5 693.98 1719.26 692.449C1718.03 690.918 1717.42 688.861 1717.42 686.277ZM1720.26 685.293H1729.09C1729.05 683.835 1728.67 682.559 1727.97 681.465C1727.26 680.361 1726.22 679.809 1724.84 679.809C1723.63 679.809 1722.61 680.215 1721.76 681.027C1720.92 681.829 1720.42 683.251 1720.26 685.293ZM1734.58 686.277C1734.58 684.038 1735.12 682.069 1736.2 680.371C1737.28 678.663 1738.87 677.809 1740.95 677.809C1742.15 677.809 1743.11 678.006 1743.83 678.402C1744.54 678.798 1745.19 679.34 1745.76 680.027H1745.79C1745.77 679.715 1745.76 679.397 1745.76 679.074V672.121C1745.76 671.652 1746 671.418 1746.47 671.418H1747.81C1748.28 671.418 1748.51 671.652 1748.51 672.121V693.777C1748.51 694.246 1748.28 694.48 1747.81 694.48H1746.5C1746.12 694.48 1745.92 694.246 1745.89 693.777L1745.79 692.527H1745.76C1745.19 693.215 1744.54 693.756 1743.83 694.152C1743.11 694.548 1742.15 694.746 1740.95 694.746C1738.87 694.746 1737.28 693.897 1736.2 692.199C1735.12 690.491 1734.58 688.517 1734.58 686.277ZM1737.48 686.277C1737.48 688.194 1737.81 689.746 1738.47 690.934C1739.13 692.121 1740.26 692.715 1741.84 692.715C1742.97 692.715 1743.9 692.335 1744.64 691.574C1745.39 690.803 1745.76 689.637 1745.76 688.074V684.48C1745.76 682.918 1745.39 681.756 1744.64 680.996C1743.9 680.225 1742.97 679.84 1741.84 679.84C1740.26 679.84 1739.13 680.434 1738.47 681.621C1737.81 682.809 1737.48 684.361 1737.48 686.277ZM1753.67 694.48C1753.2 694.48 1752.97 694.246 1752.97 693.777V678.777C1752.97 678.309 1753.2 678.074 1753.67 678.074H1755.01C1755.48 678.074 1755.72 678.309 1755.72 678.777V693.777C1755.72 694.246 1755.48 694.48 1755.01 694.48H1753.67ZM1753.67 675.105C1753.2 675.105 1752.97 674.871 1752.97 674.402V673.059C1752.97 672.59 1753.2 672.355 1753.67 672.355H1755.01C1755.48 672.355 1755.72 672.59 1755.72 673.059V674.402C1755.72 674.871 1755.48 675.105 1755.01 675.105H1753.67ZM1760.86 694.48C1760.39 694.48 1760.15 694.246 1760.15 693.777V678.777C1760.15 678.309 1760.39 678.074 1760.86 678.074H1762.17C1762.64 678.074 1762.87 678.309 1762.87 678.777V680.027H1762.93C1763.61 679.277 1764.34 678.72 1765.12 678.355C1765.9 677.991 1766.88 677.809 1768.04 677.809C1769.94 677.809 1771.3 678.345 1772.12 679.418C1772.96 680.48 1773.37 681.939 1773.37 683.793V693.777C1773.37 694.246 1773.14 694.48 1772.67 694.48H1771.33C1770.86 694.48 1770.62 694.246 1770.62 693.777V684.543C1770.62 682.501 1770.28 681.21 1769.61 680.668C1768.93 680.116 1768.07 679.84 1767.03 679.84C1765.67 679.84 1764.65 680.246 1763.95 681.059C1763.25 681.861 1762.9 683.241 1762.9 685.199V693.777C1762.9 694.246 1762.67 694.48 1762.2 694.48H1760.86Z" fill="#DBD6D6"/>
<path d="M1671.84 772.48C1671.32 772.48 1671.06 772.194 1671.06 771.621V750.934C1671.06 750.361 1671.32 750.074 1671.84 750.074H1675.17C1675.56 750.074 1675.86 750.387 1676.06 751.012L1680.53 765.027C1680.99 766.465 1681.26 767.335 1681.34 767.637C1681.42 767.928 1681.54 768.47 1681.7 769.262H1681.79C1681.95 768.47 1682.07 767.928 1682.15 767.637C1682.24 767.335 1682.51 766.465 1682.97 765.027L1687.43 751.012C1687.63 750.387 1687.93 750.074 1688.33 750.074H1691.65C1692.17 750.074 1692.43 750.361 1692.43 750.934V771.621C1692.43 772.194 1692.17 772.48 1691.65 772.48H1690.22C1689.7 772.48 1689.43 772.194 1689.43 771.621V755.23C1689.43 754.814 1689.45 754.397 1689.47 753.98H1689.4L1683.64 771.527C1683.43 772.163 1683.09 772.48 1682.61 772.48H1680.89C1680.41 772.48 1680.06 772.163 1679.86 771.527L1674.09 753.98H1674.03C1674.05 754.397 1674.06 754.814 1674.06 755.23V771.621C1674.06 772.194 1673.8 772.48 1673.28 772.48H1671.84ZM1696.42 768.105C1696.42 766.251 1697.28 764.892 1699.01 764.027C1700.75 763.163 1703.35 762.657 1706.79 762.512V761.449C1706.79 760.47 1706.57 759.626 1706.12 758.918C1705.68 758.199 1704.81 757.84 1703.5 757.84C1702.66 757.84 1702 757.923 1701.5 758.09C1701 758.246 1700.54 758.46 1700.12 758.73C1699.72 758.991 1699.33 759.329 1698.95 759.746C1698.67 760.059 1698.4 760.074 1698.15 759.793L1697.34 758.855C1697.11 758.595 1697.19 758.282 1697.58 757.918C1698.13 757.397 1698.66 757.006 1699.18 756.746C1699.71 756.486 1700.35 756.267 1701.12 756.09C1701.9 755.902 1702.7 755.809 1703.5 755.809C1705.67 755.809 1707.23 756.371 1708.15 757.496C1709.08 758.611 1709.54 760.142 1709.54 762.09V771.777C1709.54 772.246 1709.31 772.48 1708.84 772.48H1707.43C1707.03 772.48 1706.83 772.246 1706.83 771.777V771.012H1706.79C1705.97 771.657 1705.16 772.111 1704.37 772.371C1703.59 772.621 1702.72 772.746 1701.75 772.746C1700.04 772.746 1698.72 772.34 1697.79 771.527C1696.88 770.704 1696.42 769.564 1696.42 768.105ZM1699.26 768.168C1699.26 768.814 1699.4 769.335 1699.67 769.73C1699.94 770.116 1700.31 770.366 1700.79 770.48C1701.27 770.585 1701.77 770.637 1702.29 770.637C1703.1 770.637 1703.86 770.559 1704.58 770.402C1705.29 770.246 1706.03 769.835 1706.79 769.168V764.559C1704.69 764.715 1703.19 764.907 1702.29 765.137C1701.4 765.355 1700.67 765.741 1700.11 766.293C1699.54 766.835 1699.26 767.46 1699.26 768.168ZM1714.7 772.48C1714.23 772.48 1714 772.246 1714 771.777V756.777C1714 756.309 1714.23 756.074 1714.7 756.074H1716.04C1716.51 756.074 1716.75 756.309 1716.75 756.777V771.777C1716.75 772.246 1716.51 772.48 1716.04 772.48H1714.7ZM1714.7 753.105C1714.23 753.105 1714 752.871 1714 752.402V751.059C1714 750.59 1714.23 750.355 1714.7 750.355H1716.04C1716.51 750.355 1716.75 750.59 1716.75 751.059V752.402C1716.75 752.871 1716.51 753.105 1716.04 753.105H1714.7ZM1721.89 772.48C1721.42 772.48 1721.18 772.246 1721.18 771.777V752.277C1721.18 752.069 1721.24 751.871 1721.34 751.684L1722.43 749.699C1722.63 749.335 1722.79 749.152 1722.92 749.152H1723.47C1723.78 749.152 1723.93 749.335 1723.93 749.699V771.777C1723.93 772.246 1723.7 772.48 1723.23 772.48H1721.89Z" fill="#DBD6D6"/>
<path d="M1669.73 842.277C1669.73 840.038 1670.27 838.069 1671.36 836.371C1672.44 834.663 1674.02 833.809 1676.11 833.809C1677.3 833.809 1678.26 834.006 1678.98 834.402C1679.7 834.798 1680.35 835.34 1680.92 836.027H1680.95L1681.04 834.777C1681.08 834.309 1681.28 834.074 1681.65 834.074H1682.97C1683.43 834.074 1683.67 834.309 1683.67 834.777V850.605C1683.67 852.605 1683.21 854.168 1682.28 855.293C1681.36 856.428 1679.54 856.996 1676.83 856.996C1675 856.996 1673.64 856.788 1672.73 856.371C1671.83 855.965 1671.18 855.532 1670.79 855.074C1670.51 854.73 1670.5 854.439 1670.75 854.199L1671.61 853.355C1671.85 853.126 1672.18 853.199 1672.61 853.574C1673.16 854.074 1673.69 854.428 1674.2 854.637C1674.71 854.855 1675.59 854.965 1676.84 854.965C1678.26 854.965 1679.29 854.663 1679.93 854.059C1680.59 853.454 1680.92 852.204 1680.92 850.309V849.371C1680.92 849.048 1680.93 848.73 1680.95 848.418H1680.92C1680.38 849.137 1679.74 849.704 1679 850.121C1678.27 850.538 1677.3 850.746 1676.11 850.746C1674.02 850.746 1672.44 849.897 1671.36 848.199C1670.27 846.491 1669.73 844.517 1669.73 842.277ZM1672.64 842.277C1672.64 844.194 1672.97 845.746 1673.62 846.934C1674.29 848.121 1675.41 848.715 1677 848.715C1678.12 848.715 1679.05 848.335 1679.79 847.574C1680.54 846.803 1680.92 845.637 1680.92 844.074V840.48C1680.92 838.918 1680.54 837.756 1679.79 836.996C1679.05 836.225 1678.12 835.84 1677 835.84C1675.41 835.84 1674.29 836.434 1673.62 837.621C1672.97 838.809 1672.64 840.361 1672.64 842.277ZM1688.83 850.48C1688.36 850.48 1688.12 850.246 1688.12 849.777V834.777C1688.12 834.309 1688.36 834.074 1688.83 834.074H1690.17C1690.64 834.074 1690.87 834.309 1690.87 834.777V849.777C1690.87 850.246 1690.64 850.48 1690.17 850.48H1688.83ZM1688.83 831.105C1688.36 831.105 1688.12 830.871 1688.12 830.402V829.059C1688.12 828.59 1688.36 828.355 1688.83 828.355H1690.17C1690.64 828.355 1690.87 828.59 1690.87 829.059V830.402C1690.87 830.871 1690.64 831.105 1690.17 831.105H1688.83ZM1694.51 836.137C1694.04 836.137 1693.81 835.954 1693.81 835.59V834.621C1693.81 834.256 1694.04 834.074 1694.51 834.074H1696.36V832.668C1696.36 832.46 1696.41 832.262 1696.51 832.074L1697.61 830.09C1697.8 829.725 1697.97 829.543 1698.09 829.543H1698.64C1698.95 829.543 1699.11 829.725 1699.11 830.09V834.074H1702.43C1702.9 834.074 1703.14 834.256 1703.14 834.621V835.59C1703.14 835.954 1702.9 836.137 1702.43 836.137H1699.11V846.09C1699.11 847.184 1699.27 847.897 1699.59 848.23C1699.92 848.553 1700.32 848.715 1700.78 848.715C1701.13 848.715 1701.55 848.611 1702.04 848.402C1702.54 848.194 1702.89 848.017 1703.08 847.871C1703.26 847.725 1703.41 847.772 1703.51 848.012L1704.03 849.215C1704.11 849.423 1704.05 849.59 1703.84 849.715C1703.43 849.954 1702.84 850.189 1702.06 850.418C1701.28 850.637 1700.5 850.746 1699.72 850.746C1698.63 850.746 1697.8 850.355 1697.22 849.574C1696.64 848.793 1696.36 847.689 1696.36 846.262V836.137H1694.51ZM1707.86 850.48C1707.39 850.48 1707.15 850.246 1707.15 849.777V828.121C1707.15 827.652 1707.39 827.418 1707.86 827.418H1709.2C1709.67 827.418 1709.9 827.652 1709.9 828.121V835.09C1709.9 835.402 1709.89 835.715 1709.87 836.027H1709.93C1710.61 835.277 1711.34 834.72 1712.12 834.355C1712.9 833.991 1713.88 833.809 1715.04 833.809C1716.94 833.809 1718.3 834.345 1719.12 835.418C1719.96 836.48 1720.37 837.939 1720.37 839.793V849.777C1720.37 850.246 1720.14 850.48 1719.67 850.48H1718.33C1717.86 850.48 1717.62 850.246 1717.62 849.777V840.543C1717.62 838.501 1717.28 837.21 1716.61 836.668C1715.93 836.116 1715.07 835.84 1714.03 835.84C1712.67 835.84 1711.65 836.246 1710.95 837.059C1710.25 837.861 1709.9 839.241 1709.9 841.199V849.777C1709.9 850.246 1709.67 850.48 1709.2 850.48H1707.86ZM1724.75 844.762V834.777C1724.75 834.309 1724.98 834.074 1725.45 834.074H1726.79C1727.26 834.074 1727.5 834.309 1727.5 834.777V844.012C1727.5 846.053 1727.84 847.35 1728.51 847.902C1729.19 848.444 1730.03 848.715 1731.03 848.715C1732.34 848.715 1733.35 848.314 1734.04 847.512C1734.74 846.699 1735.09 845.314 1735.09 843.355V834.777C1735.09 834.309 1735.33 834.074 1735.79 834.074H1737.14C1737.61 834.074 1737.84 834.309 1737.84 834.777V849.777C1737.84 850.246 1737.61 850.48 1737.14 850.48H1735.83C1735.36 850.48 1735.12 850.246 1735.12 849.777V848.527H1735.06C1734.38 849.277 1733.65 849.835 1732.87 850.199C1732.09 850.564 1731.14 850.746 1730.01 850.746C1728.19 850.746 1726.86 850.215 1726.01 849.152C1725.17 848.079 1724.75 846.616 1724.75 844.762ZM1742.98 850.48C1742.51 850.48 1742.28 850.246 1742.28 849.777V828.121C1742.28 827.652 1742.51 827.418 1742.98 827.418H1744.33C1744.79 827.418 1745.03 827.652 1745.03 828.121V835.074C1745.03 835.397 1745.02 835.715 1745 836.027H1745.03C1745.6 835.34 1746.25 834.798 1746.97 834.402C1747.68 834.006 1748.64 833.809 1749.84 833.809C1751.92 833.809 1753.51 834.663 1754.59 836.371C1755.67 838.069 1756.22 840.038 1756.22 842.277C1756.22 844.517 1755.67 846.491 1754.59 848.199C1753.51 849.897 1751.92 850.746 1749.84 850.746C1748.64 850.746 1747.68 850.548 1746.97 850.152C1746.25 849.756 1745.6 849.215 1745.03 848.527H1745L1744.9 849.777C1744.87 850.246 1744.67 850.48 1744.29 850.48H1742.98ZM1745.03 844.074C1745.03 845.637 1745.4 846.803 1746.14 847.574C1746.89 848.335 1747.83 848.715 1748.95 848.715C1750.53 848.715 1751.65 848.121 1752.31 846.934C1752.98 845.746 1753.31 844.194 1753.31 842.277C1753.31 840.361 1752.98 838.809 1752.31 837.621C1751.65 836.434 1750.53 835.84 1748.95 835.84C1747.83 835.84 1746.89 836.225 1746.14 836.996C1745.4 837.756 1745.03 838.918 1745.03 840.48V844.074Z" fill="#DBD6D6"/>
<defs>
<filter id="filter0_f_7_53" x="-180" y="-163.174" width="1350.91" height="1239.62" filterUnits="userSpaceOnUse" color-interpolation-filters="sRGB">
<feFlood flood-opacity="0" result="BackgroundImageFix"/>
<feBlend mode="normal" in="SourceGraphic" in2="BackgroundImageFix" result="shape"/>
<feGaussianBlur stdDeviation="90" result="effect1_foregroundBlur_7_53"/>
</filter>
<filter id="filter1_f_7_53" x="7.55676" y="346.649" width="1916.72" height="805.902" filterUnits="userSpaceOnUse" color-interpolation-filters="sRGB">
<feFlood flood-opacity="0" result="BackgroundImageFix"/>
<feBlend mode="normal" in="SourceGraphic" in2="BackgroundImageFix" result="shape"/>
<feGaussianBlur stdDeviation="90" result="effect1_foregroundBlur_7_53"/>
</filter>
<filter id="filter2_f_7_53" x="370.568" y="-182" width="1729.76" height="1375" filterUnits="userSpaceOnUse" color-interpolation-filters="sRGB">
<feFlood flood-opacity="0" result="BackgroundImageFix"/>
<feBlend mode="normal" in="SourceGraphic" in2="BackgroundImageFix" result="shape"/>
<feGaussianBlur stdDeviation="90" result="effect1_foregroundBlur_7_53"/>
</filter>
</defs>
</svg>
