<svg width="40" height="40" viewBox="0 0 40 40" fill="none" xmlns="http://www.w3.org/2000/svg">
<path d="M20 4.0625C16.8479 4.0625 13.7665 4.99722 11.1456 6.74845C8.5247 8.49969 6.48195 10.9888 5.27568 13.901C4.06941 16.8132 3.75379 20.0177 4.36874 23.1093C4.98369 26.2008 6.50159 29.0406 8.73049 31.2695C10.9594 33.4984 13.7992 35.0163 16.8908 35.6313C19.9823 36.2462 23.1868 35.9306 26.099 34.7243C29.0112 33.5181 31.5003 31.4753 33.2516 28.8544C35.0028 26.2335 35.9375 23.1521 35.9375 20C35.9292 15.7756 34.2475 11.7267 31.2604 8.73961C28.2733 5.75254 24.2244 4.07076 20 4.0625V4.0625ZM20 34.0625C17.2187 34.0625 14.4999 33.2377 12.1873 31.6925C9.87473 30.1473 8.07231 27.9511 7.00795 25.3815C5.94359 22.8119 5.66511 19.9844 6.20771 17.2565C6.75032 14.5287 8.08964 12.023 10.0563 10.0563C12.023 8.08963 14.5287 6.75031 17.2565 6.20771C19.9844 5.6651 22.8119 5.94359 25.3815 7.00794C27.9511 8.0723 30.1473 9.87473 31.6925 12.1873C33.2378 14.4999 34.0625 17.2187 34.0625 20C34.0584 23.7283 32.5755 27.3028 29.9391 29.9391C27.3028 32.5755 23.7283 34.0584 20 34.0625ZM14.6875 20C14.6875 21.115 15.0383 22.2017 15.6903 23.1063C16.3422 24.0108 17.2623 24.6873 18.32 25.0399C19.3778 25.3925 20.5197 25.4033 21.584 25.0709C22.6483 24.7384 23.581 24.0795 24.25 23.1875C24.3992 22.9886 24.6213 22.8571 24.8674 22.8219C25.1136 22.7868 25.3636 22.8508 25.5625 23C25.7614 23.1492 25.8929 23.3713 25.9281 23.6174C25.9632 23.8636 25.8992 24.1136 25.75 24.3125C24.8449 25.5193 23.583 26.4108 22.1431 26.8606C20.7032 27.3104 19.1582 27.2957 17.7271 26.8187C16.296 26.3416 15.0513 25.4264 14.1692 24.2026C13.2872 22.9788 12.8125 21.5085 12.8125 20C12.8125 18.4915 13.2872 17.0212 14.1692 15.7974C15.0513 14.5736 16.296 13.6584 17.7271 13.1813C19.1582 12.7043 20.7032 12.6896 22.1431 13.1394C23.583 13.5892 24.8449 14.4807 25.75 15.6875C25.8239 15.786 25.8776 15.8981 25.9082 16.0173C25.9387 16.1366 25.9455 16.2607 25.9281 16.3826C25.9107 16.5045 25.8694 16.6217 25.8067 16.7277C25.744 16.8336 25.661 16.9261 25.5625 17C25.464 17.0739 25.3519 17.1276 25.2327 17.1582C25.1134 17.1887 24.9893 17.1955 24.8674 17.1781C24.7455 17.1607 24.6283 17.1194 24.5224 17.0567C24.4164 16.994 24.3239 16.911 24.25 16.8125C23.581 15.9205 22.6483 15.2616 21.584 14.9291C20.5197 14.5967 19.3778 14.6075 18.32 14.9601C17.2623 15.3127 16.3422 15.9892 15.6903 16.8937C15.0383 17.7983 14.6875 18.885 14.6875 20Z" fill="#F5F4F4"/>
</svg>
