<svg width="18" height="18" viewBox="0 0 18 18" fill="none" xmlns="http://www.w3.org/2000/svg">
<path d="M3.31989 15.3006L2.05652 1.125H15.9435L14.6785 15.2983L8.99158 16.875L3.31989 15.3006Z" fill="#1572B6"/>
<path d="M9 15.6702L13.5956 14.3962L14.6767 2.28442H9V15.6702Z" fill="#33A9DC"/>
<path d="M9 7.41988H11.3006L11.4592 5.63957H9V3.90088H13.3594L13.3178 4.36719L12.8908 9.15857H9V7.41988Z" fill="white"/>
<path d="M9.0107 11.935L9.00282 11.9373L7.0667 11.4142L6.94295 10.0276H5.19751L5.44107 12.7574L9.00226 13.7463L9.0107 13.744V11.935Z" fill="#EBEBEB"/>
<path d="M11.1527 9.08496L10.9435 11.4131L9.00452 11.9363V13.7453L12.5685 12.7575L12.595 12.4639L12.897 9.08496H11.1527Z" fill="white"/>
<path d="M9.00619 3.90088V5.63957H4.80657L4.77169 5.24863L4.69238 4.36719L4.65076 3.90088H9.00619ZM9.00001 7.41988V9.15857H7.08807L7.05319 8.76763L6.97444 7.88619L6.93282 7.41988H9.00001Z" fill="#EBEBEB"/>
</svg>
