<svg width="18" height="18" viewBox="0 0 18 18" fill="none" xmlns="http://www.w3.org/2000/svg">
<path d="M3.31985 15.3006L2.05591 1.125H15.944L14.6784 15.2983L8.99153 16.875L3.31985 15.3006Z" fill="#E44F26"/>
<path d="M9 15.6702L13.5956 14.3962L14.6767 2.28442H9V15.6702Z" fill="#F1662A"/>
<path d="M9 7.54146H6.69937L6.54075 5.76115H9V4.02246H4.64062L4.68225 4.48934L5.10919 9.28015H9V7.54146ZM9 12.0566L8.99213 12.0589L7.056 11.5363L6.93225 10.1498H5.18681L5.43038 12.879L8.99213 13.8679L9 13.8656V12.0566Z" fill="#EBEBEB"/>
<path d="M8.99384 7.54146V9.28015H11.1347L10.9333 11.5352L8.99384 12.0583V13.8673L12.5584 12.879L12.5843 12.5854L12.9926 8.00834L13.0354 7.54146H8.99384ZM8.99384 4.02246V5.76115H13.1935L13.2283 5.37077L13.3076 4.48934L13.3493 4.02246H8.99384Z" fill="white"/>
</svg>
