<svg width="18" height="18" viewBox="0 0 18 18" fill="none" xmlns="http://www.w3.org/2000/svg">
<path d="M15 3L13.5 13.875L9 15.375L4.5 13.875L3 3H15Z" stroke="#FFC700" stroke-width="1.5" stroke-linecap="round" stroke-linejoin="round"/>
<path d="M5.625 6H7.875V12L6.375 11.25M12.375 6H10.5C10.4005 6 10.3052 6.03951 10.2348 6.10983C10.1645 6.18016 10.125 6.27554 10.125 6.375V8.625C10.125 8.72446 10.1645 8.81984 10.2348 8.89017C10.3052 8.96049 10.4005 9 10.5 9H11.5673C11.6209 9.00001 11.674 9.01154 11.7228 9.03381C11.7717 9.05609 11.8151 9.08859 11.8503 9.12912C11.8855 9.16965 11.9116 9.21726 11.9268 9.26873C11.942 9.32021 11.946 9.37435 11.9385 9.4275L11.625 11.625L10.125 12" stroke="#FFC700" stroke-width="1.5" stroke-linecap="round" stroke-linejoin="round"/>
</svg>
