<svg width="18" height="18" viewBox="0 0 18 18" fill="none" xmlns="http://www.w3.org/2000/svg">
<path d="M9 7.1625C9.68775 6.45975 10.5833 6 11.625 6C12.719 6 13.7682 6.4346 14.5418 7.20818C15.3154 7.98177 15.75 9.03098 15.75 10.125V15.75H14.25V10.125C14.25 9.42881 13.9734 8.76113 13.4812 8.26884C12.9889 7.77656 12.3212 7.5 11.625 7.5C10.9288 7.5 10.2611 7.77656 9.76884 8.26884C9.27656 8.76113 9 9.42881 9 10.125V15.75H7.5V6.375H9V7.1625ZM3.75 4.875C3.45163 4.875 3.16548 4.75647 2.9545 4.5455C2.74353 4.33452 2.625 4.04837 2.625 3.75C2.625 3.45163 2.74353 3.16548 2.9545 2.9545C3.16548 2.74353 3.45163 2.625 3.75 2.625C4.04837 2.625 4.33452 2.74353 4.5455 2.9545C4.75647 3.16548 4.875 3.45163 4.875 3.75C4.875 4.04837 4.75647 4.33452 4.5455 4.5455C4.33452 4.75647 4.04837 4.875 3.75 4.875ZM3 6.375H4.5V15.75H3V6.375Z" fill="#E2E6ED"/>
</svg>
