<svg width="12" height="18" viewBox="0 0 12 18" fill="none" xmlns="http://www.w3.org/2000/svg">
<g clip-path="url(#clip0_39_58)">
<path d="M3 18C4.656 18 6 16.656 6 15V12H3C1.344 12 0 13.344 0 15C0 16.656 1.344 18 3 18Z" fill="#0ACF83"/>
<path d="M0 9C0 7.344 1.344 6 3 6H6V12H3C1.344 12 0 10.656 0 9Z" fill="#A259FF"/>
<path d="M0 3C0 1.344 1.344 0 3 0H6V6H3C1.344 6 0 4.656 0 3Z" fill="#F24E1E"/>
<path d="M6 0H9C10.656 0 12 1.344 12 3C12 4.656 10.656 6 9 6H6V0Z" fill="#FF7262"/>
<path d="M12 9C12 10.656 10.656 12 9 12C7.344 12 6 10.656 6 9C6 7.344 7.344 6 9 6C10.656 6 12 7.344 12 9Z" fill="#1ABCFE"/>
</g>
<defs>
<clipPath id="clip0_39_58">
<rect width="12" height="18" fill="white"/>
</clipPath>
</defs>
</svg>
