<svg width="60" height="60" viewBox="0 0 60 60" fill="none" xmlns="http://www.w3.org/2000/svg">
<g clip-path="url(#clip0_93_68)">
<path fill-rule="evenodd" clip-rule="evenodd" d="M13.655 10.1C13.091 10.0901 12.5282 10.1522 11.98 10.285V10.38H12.0725C12.3975 11.0475 12.9725 11.48 13.375 12.055L14.305 14.0075L14.4 13.915C14.975 13.51 15.24 12.86 15.2375 11.8675C15.005 11.625 14.97 11.32 14.77 11.03C14.505 10.645 13.99 10.425 13.655 10.1ZM58.6975 57.8425C59.135 58.165 59.43 58.665 60 58.8675V58.7725C59.7 58.3925 59.625 57.8675 59.35 57.47C58.9448 57.0685 58.5414 56.6652 58.14 56.26C56.9252 54.6886 55.4816 53.3082 53.8575 52.165C52.5875 51.2525 49.735 50.0175 49.205 48.5375L49.11 48.4425C50.0125 48.3425 51.07 48.015 51.9025 47.7925C53.3025 47.4175 54.5525 47.5125 55.9975 47.1425C56.65 46.9525 57.3 46.7675 57.9525 46.5825V46.2075C57.2225 45.4575 56.7025 44.4675 55.905 43.79C53.82 42.015 51.5475 40.24 49.205 38.765C47.905 37.9425 46.3 37.4125 44.9225 36.715C44.46 36.4825 43.6475 36.36 43.3425 35.9725C42.6175 35.0475 42.225 33.88 41.6675 32.8075C40.5 30.5575 39.35 28.1 38.3175 25.7325C37.61 24.12 37.15 22.53 36.2675 21.0825C32.0425 14.1325 27.4925 9.93996 20.4475 5.81746C18.9475 4.94246 17.1425 4.59496 15.2375 4.14246L12.165 3.95746C11.54 3.69496 10.89 2.93246 10.305 2.55996C7.96998 1.08496 1.97998 -2.12254 0.254975 2.09496C-0.837525 4.75746 1.88498 7.35496 2.85998 8.70246C3.54248 9.64996 4.41748 10.71 4.90748 11.775C5.22748 12.475 5.28248 13.175 5.55748 13.915C6.23498 15.74 6.82248 17.72 7.69748 19.405C8.14248 20.2575 8.62998 21.155 9.18748 21.9175C9.53248 22.385 10.1175 22.5925 10.21 23.315C9.63498 24.1175 9.60498 25.365 9.28248 26.385C7.82748 30.9725 8.37498 36.6725 10.4925 40.0675C11.14 41.1075 12.6675 43.3425 14.77 42.485C16.61 41.735 16.2 39.415 16.725 37.3675C16.8425 36.9025 16.7725 36.56 17.005 36.25V36.3425L18.68 39.6925C19.92 41.69 22.12 43.7775 23.985 45.185C24.95 45.915 25.71 47.1775 26.9625 47.605V47.51H26.87C26.625 47.135 26.245 46.9775 25.94 46.6725C25.1658 45.921 24.4496 45.112 23.7975 44.2525C22.1025 41.9525 20.605 39.4325 19.24 36.81C18.5875 35.555 18.02 34.175 17.47 32.9C17.2575 32.4075 17.26 31.665 16.82 31.41C16.2175 32.345 15.33 33.1 14.865 34.2025C14.12 35.965 14.0225 38.115 13.7475 40.345C13.585 40.4025 13.6575 40.3625 13.56 40.4375C12.265 40.125 11.81 38.79 11.3275 37.645C10.11 34.7525 9.88248 30.09 10.955 26.7575C11.2325 25.895 12.4875 23.18 11.98 22.3825C11.735 21.5875 10.9375 21.13 10.49 20.5225C9.90485 19.7069 9.40553 18.8331 8.99998 17.915C8.00498 15.66 7.53748 13.125 6.48748 10.8425C5.98748 9.75246 5.13748 8.64996 4.43998 7.67996C3.66998 6.60496 2.80498 5.81496 2.20748 4.51496C1.99498 4.05246 1.70498 3.31496 2.01998 2.83996C2.11998 2.51996 2.26248 2.38496 2.57998 2.28246C3.11998 1.86496 4.62248 2.41996 5.18498 2.65246C6.67748 3.27246 7.92248 3.86246 9.18498 4.70246C9.79248 5.10246 10.4075 5.88246 11.14 6.09746H11.9775C13.29 6.39746 14.7575 6.18996 15.98 6.56246C18.1425 7.21996 20.08 8.24246 21.8425 9.35496C27.2075 12.7425 31.5925 17.5625 34.5925 23.315C35.075 24.24 35.285 25.125 35.71 26.1075C36.5675 28.0875 37.6475 30.125 38.5 32.0625C39.35 33.995 40.1825 35.945 41.385 37.5525C42.0175 38.3975 44.4625 38.8525 45.575 39.3225C46.3525 39.65 47.6275 39.995 48.365 40.4375C49.775 41.2875 51.14 42.3 52.46 43.23C53.12 43.6975 55.1525 44.7175 55.2525 45.555C51.9775 45.47 49.4775 45.7725 47.3425 46.675C46.735 46.93 45.7675 46.9375 45.6675 47.6975C46 48.0475 46.0525 48.5725 46.3175 49C46.8275 49.825 47.69 50.9325 48.4575 51.5125C49.3 52.1475 50.165 52.825 51.065 53.375C52.665 54.35 54.455 54.91 55.995 55.8875C56.9075 56.465 57.8125 57.19 58.6975 57.8425Z" fill="#F5F4F4"/>
</g>
<defs>
<clipPath id="clip0_93_68">
<rect width="60" height="60" fill="white"/>
</clipPath>
</defs>
</svg>
